<svg width="178" height="66" viewBox="0 0 178 66" fill="none" xmlns="http://www.w3.org/2000/svg">
<!-- <g clip-path="url(#clip0)"> -->
<!-- <rect width="178" height="66" fill="white"/> -->
<!-- <path d="M-11 -17H178V66H-11V-17Z" fill="#3F3A53"/> -->
<path d="M0 0H178V66H0V0Z" fill="#151220"/>
<path d="M21.2835 39.2077L28.7202 33.566L28.6435 49.7277L0.847669 29.1413L28.8369 8.97973L28.7611 24.9337L21.7283 19.4121L21.4304 19.1783L21.1246 19.4017L10.7183 27.0032L9.48105 27.907H11.0132H22.5145V31.9747H12.5965H11.1052L12.2951 32.8736L20.6799 39.2083L20.9819 39.4365L21.2835 39.2077Z" fill="#F2F1F3" stroke="#F2F1F3"/>
<path d="M43.6936 18.7025L39.5915 26.252L35.8103 18.519L43.6936 18.7025ZM36.6919 47.5601L40.5694 41.134L44.4469 47.5601H36.6919Z" fill="#F2F1F3" stroke="#F2F1F3"/>
<path d="M68.644 49.8484L41.001 33.6886L68.8363 17.8624L68.7617 30.2798L61.6829 25.8931L61.4288 25.7356L61.1698 25.885L48.6811 33.0856L48.0144 33.0858L46.2007 33.0864L47.4194 33.813L46.2734 34.4738L48.1216 34.4838L48.548 34.4861L60.7252 41.7476L60.9818 41.9006L61.2381 41.7471L68.7196 37.2673L68.644 49.8484Z" fill="#F2F1F3" stroke="#F2F1F3"/>
<path d="M89.9676 38.2835L94.4413 31.7009L94.5603 31.7025L95.5016 31.7149L94.9848 30.9281L94.9758 30.9144L95.4707 30.1863L94.5255 30.187L94.4982 30.187L90.1406 23.5514L89.7376 22.9377L89.3142 23.5376L84.6155 30.1945L84.5665 30.1946L83.6208 30.1953L84.1095 30.9114L83.6531 31.5581L84.559 31.5701L89.1411 38.2842L89.5549 38.8907L89.9676 38.2835ZM89.3989 50.1581L74.7795 19.5313L102.67 18.5278L89.3989 50.1581Z" fill="#F2F1F3" stroke="#F2F1F3"/>
<path d="M140.466 40.7744L132.883 26.8482L132.862 26.0617L131.914 25.8546L131.772 26.1427L131.468 26.2237L131.479 26.7393L124.572 40.8041L124.456 41.0408L124.585 41.2704L129.357 49.7181L116.676 50.0608L116.792 49.8192L115.991 49.824L114.378 49.8337L118.751 41.6313L118.875 41.3985L118.753 41.1646L111.398 27.0812L111.39 26.2942L110.445 26.0712L110.3 26.3555L109.994 26.4315L109.996 26.947L102.861 40.864L102.74 41.0986L102.866 41.3304L107.498 49.8753L94.8133 49.9518L110.708 18.3214L121.229 38.7484L121.689 39.6411L122.124 38.7363L132.051 18.1023L148.753 49.1939L136.235 49.5322L140.472 41.2411L140.592 41.0061L140.466 40.7744Z" fill="#F2F1F3" stroke="#F2F1F3"/>
<path d="M139.5 8.5V8.99086L140.097 8.67562L158.316 43.1744L158.572 43.6588L158.848 43.4787L160.615 45.4031L160.961 45.7796L160.986 45.755L164.07 48.9755L156.557 49.0812L154.194 46.5083L154.364 46.398L154.151 45.9944L137.131 13.7665L136.99 13.5H136.689H35.5V8.5H139.5Z" fill="#6E57E0" stroke="#6E57E0"/>
<!-- </g> -->
<!-- <defs> -->
<!-- <clipPath id="clip0">
<rect width="178" height="66" fill="white"/>
</clipPath> -->
<!-- </defs> -->
</svg>
