<svg width="330" height="585" viewBox="0 0 330 585" fill="none" xmlns="http://www.w3.org/2000/svg">
<g clip-path="url(#clip0)">
<rect width="330" height="585" fill="white"/>
<path d="M-11 -17H330V575H-11V-17Z" fill="#3F3A53"/>
<path d="M105.283 288.208L112.72 282.566L112.643 298.728L84.8477 278.141L112.837 257.98L112.761 273.934L105.728 268.412L105.43 268.178L105.125 268.402L94.7183 276.003L93.481 276.907H95.0132H106.515V280.975H96.5965H95.1052L96.2951 281.874L104.68 288.208L104.982 288.436L105.283 288.208Z" fill="#F2F1F3" stroke="#F2F1F3"/>
<path d="M126.423 267.716L122.445 275.768L118.778 267.52L126.423 267.716ZM119.625 298.5L123.39 291.636L127.155 298.5H119.625Z" fill="#F2F1F3" stroke="#F2F1F3"/>
<path d="M151.305 298.149L124.032 282.839L151.495 267.846L151.421 279.577L144.426 275.414L144.179 275.267L143.928 275.406L131.583 282.241L130.921 282.241L129.043 282.242L130.291 282.957L129.112 283.609L131.027 283.619L131.452 283.621L143.489 290.514L143.738 290.656L143.986 290.513L151.379 286.262L151.305 298.149Z" fill="#F2F1F3" stroke="#F2F1F3"/>
<path d="M172.482 286.662L177.28 280.092L177.432 280.095L178.406 280.112L177.853 279.311L177.851 279.309L178.381 278.584L177.402 278.579L177.347 278.579L172.741 271.908L172.349 271.34L171.931 271.89L166.894 278.533L166.816 278.533L165.837 278.528L166.353 279.247L165.864 279.892L166.827 279.908L171.672 286.659L172.074 287.22L172.482 286.662ZM171.853 298.582L156.44 267.817L186.148 266.964L171.853 298.582Z" fill="#F2F1F3" stroke="#F2F1F3"/>
<path d="M222.817 289.074L215.175 274.973L215.154 274.175L214.205 273.968L214.064 274.257L213.757 274.338L213.768 274.862L206.807 289.103L206.692 289.339L206.821 289.568L211.634 298.131L198.84 298.478L198.958 298.233L198.158 298.238L196.525 298.248L200.936 289.934L201.059 289.702L200.938 289.469L193.527 275.209L193.519 274.41L192.573 274.188L192.428 274.472L192.119 274.549L192.122 275.073L184.931 289.164L184.812 289.398L184.936 289.629L189.609 298.29L176.812 298.367L192.835 266.328L203.439 287.015L203.899 287.913L204.335 287.003L214.34 266.106L231.178 297.6L218.548 297.943L222.823 289.539L222.942 289.304L222.817 289.074Z" fill="#F2F1F3" stroke="#F2F1F3"/>
<path d="M241.775 295.156L241.801 295.131L244.86 298.389L237.418 298.496L235.072 295.891L235.242 295.778L235.036 295.379L218.176 262.83L218.036 262.56H217.732H117.5V257.5H220.512V258L221.105 257.681L239.15 292.519L239.406 293.014L239.681 292.831L241.427 294.769L241.775 295.156Z" fill="#6E57E0" stroke="#6E57E0"/>
</g>
<defs>
<clipPath id="clip0">
<rect width="330" height="585" fill="white"/>
</clipPath>
</defs>
</svg>
