<svg width="56" height="34" viewBox="0 0 56 34" fill="none" xmlns="http://www.w3.org/2000/svg">
<path d="M46.8166 24.0736L39.1751 9.97281L39.1539 9.17455L38.2049 8.96824L38.0639 9.25666L37.7567 9.33807L37.768 9.86217L30.8073 24.1034L30.6921 24.3392L30.8207 24.568L35.6341 33.1306L22.8404 33.478L22.9576 33.2332L22.1585 33.238L20.5248 33.2479L24.936 24.9335L25.059 24.7016L24.938 24.4686L17.5269 10.2086L17.5187 9.40974L16.5734 9.18758L16.4281 9.4722L16.119 9.54858L16.1218 10.0726L8.93091 24.1642L8.81164 24.3979L8.93623 24.6289L13.6087 33.2899L0.811573 33.3675L16.8352 1.32832L27.4389 22.0149L27.8991 22.9128L28.3348 22.0028L38.3401 1.10646L55.1776 32.5998L42.5483 32.9428L46.8226 24.5385L46.9417 24.3045L46.8166 24.0736Z" fill="#F2F1F3" stroke="#F2F1F3"/>
</svg>
